<?xml version="1.0" encoding="utf-8"?>
<svg width="204.146" height="64.173" viewBox="0 0 204.146 64.173" fill="none" xmlns="http://www.w3.org/2000/svg">
  <g>
    <path d="M27.2428 22.7568C26.944 22.2527 26.5341 21.7866 26.1044 21.3438L22.8529 18.1433C19.3505 14.8118 18.4999 8.84399 21.0797 4.9187C25.4517 -1.73218 34.5374 -1.55737 38.5725 4.95264C41.0123 8.88818 39.9628 11.6946 37.6719 14.1418C37.0622 15.1638 36.2446 15.228 35.363 14.3818C34.9292 13.9658 34.5084 13.5356 34.0946 13.0996C33.5878 12.5657 33.4589 12.1125 34.0316 11.4243C35.246 9.96924 34.9372 9.26611 34.4564 8.27393C33.2197 6.9292 32.0905 7.01099 30.8344 7.10205L30.7412 7.10889C28.8761 7.77393 28.6582 8.57813 28.0115 9.99219C27.1948 11.7786 28.1934 13.1077 29.3278 14.2769L32.5793 17.4773C33.9977 18.8264 34.9682 20.6106 35.464 22.5139C35.4869 22.6619 35.5289 22.9409 35.5749 23.3521C35.6459 23.9631 35.6948 24.8411 35.6709 25.8862C35.6439 26.9314 35.4939 28.1487 35.1091 29.3777C34.7223 30.5999 34.0726 31.8401 33.0911 32.7761C32.6223 33.2651 32.0606 33.6543 31.4868 33.9963C30.8971 34.3125 30.2944 34.5935 29.6767 34.7805C29.5158 34.8345 29.3568 34.8716 29.1959 34.9165C28.4842 34.9885 27.8076 35.1335 27.1829 35.3264C26.842 35.3726 26.5092 35.4106 26.1933 35.4226C25.6705 35.4685 25.1898 35.4756 24.762 35.4836C24.5011 35.4946 24.2682 35.4936 24.0513 35.4895C24.2772 35.4736 24.5041 35.4456 24.73 35.3984C25.5856 35.2275 26.3992 34.8235 27.0959 34.2893C28.4772 33.1833 29.3578 31.5981 29.7736 30.0408C29.8816 29.6377 29.9615 29.2607 30.0065 28.8716C30.0185 28.6736 30.0305 28.4766 30.0415 28.2827C30.0295 28.0896 30.0165 27.8997 30.0045 27.7114C29.9156 26.9644 29.6847 26.2944 29.4188 25.7112C29.1559 25.1233 28.8231 24.6382 28.5232 24.219C28.2184 23.802 27.9215 23.4648 27.6746 23.1919C27.5067 23.0129 27.3668 22.876 27.2428 22.7568L27.2428 22.7568ZM16.9447 35.043C17.3904 34.6829 17.7223 34.4148 17.9063 34.4353C18.425 34.4922 20.4401 36.2214 20.555 36.7976C20.67 37.3735 18.6529 39.3589 18.6529 39.3589C18.609 39.4338 18.2961 39.7749 18.1922 39.8508C11.9491 44.4575 3.97584 41.28 1.03123 34.7573C-1.84843 28.3765 1.7149 22.2307 6.63559 20.0442C9.76912 18.6521 14.9097 18.9502 17.9323 22.0615C18.0482 22.1816 18.1682 22.2976 18.2851 22.4177C18.7809 22.8318 19.2456 23.2947 19.6515 23.7969C20.2722 24.4138 20.8959 25.0281 21.5176 25.6431C21.5176 25.6431 25.5747 29.0044 27.2459 25.9851C27.3049 25.8682 27.3648 25.75 27.4208 25.6292C27.8746 24.636 27.7666 23.7849 27.3878 23.0237C27.4518 23.1018 27.5128 23.1748 27.5857 23.2666C27.8076 23.5566 28.0735 23.9119 28.3384 24.3438C28.5973 24.7778 28.8791 25.2749 29.109 25.8459C29.3369 26.4172 29.5208 27.0613 29.5698 27.7502C29.5718 27.9224 29.5748 28.0964 29.5778 28.2734C29.5588 28.4475 29.5398 28.6235 29.5198 28.8025C29.4928 28.9695 29.4469 29.1714 29.4109 29.3545C29.3619 29.5334 29.3239 29.7136 29.2659 29.8955C28.8281 31.3508 27.9855 32.824 26.7241 33.8162C26.0954 34.3022 25.3738 34.6702 24.6101 34.8293C23.8475 34.9863 23.0629 34.9722 22.3272 34.8093C20.8509 34.4841 19.5915 33.717 18.611 32.968C18.504 32.8721 18.3931 32.7791 18.2941 32.6809C17.0337 31.4268 15.7743 30.1726 14.5149 28.9185C12.9926 27.4023 10.7766 27.1643 9.18639 28.3374C7.65111 29.4705 7.24231 31.6079 8.16388 33.4941C9.20238 35.6204 11.8791 36.8364 13.5883 36.7366C14.9472 36.6572 16.1342 35.698 16.9447 35.043L16.9447 35.043ZM55.9665 28.2446C54.9989 25.8982 53.2898 23.5911 51.2417 22.3347C51.2417 22.3347 49.2576 20.5667 45.7173 20.7957C45.7213 20.8005 45.7233 20.8027 45.7273 20.8086C45.3135 20.8296 44.9107 20.8816 44.5169 20.9487C44.332 20.9827 44.1491 21.0127 43.9581 21.0576C40.8166 21.7527 38.4977 23.6079 38.4977 23.6079C37.6231 24.3052 36.7865 24.9011 35.9799 25.4163C35.9909 25.5713 36.0029 25.7212 36.0079 25.8862C36.0239 26.4204 36.0129 27.0015 35.9599 27.6155C35.8929 28.2266 35.813 28.8777 35.6161 29.5288C35.4241 30.1768 35.1913 30.8479 34.8264 31.469C34.4756 32.094 34.0418 32.6951 33.5141 33.2043C33.0003 33.7292 32.3896 34.1443 31.7709 34.5044C31.497 34.6504 31.2181 34.7764 30.9373 34.8945C31.3451 34.9246 31.7569 34.9785 32.1687 35.0554C35.5621 32.2781 40.4788 28.1655 44.8897 27.8745C46.2481 27.7856 48.2851 27.7605 49.5615 30.3459C49.5615 30.3459 50.3441 34.4785 46.2501 36.1057C42.8377 37.4619 40.6797 36.2075 37.6521 38.1938C38.2808 38.8521 38.8275 39.5671 39.2673 40.3181C39.7131 41.0693 40.032 41.8613 40.2249 42.6375C40.3018 42.9395 40.3548 43.2356 40.3988 43.5286C42.082 42.6304 44.3359 42.2234 46.356 42.0603L46.347 42.0283C50.8419 42.0334 54.1763 38.979 55.1838 37.9368C56.2213 36.4187 56.6352 34.2725 56.6481 34.2043C56.97 32.2581 56.7741 30.2029 55.9665 28.2446L55.9665 28.2446ZM40.0272 43.7324C40.0132 43.7415 39.9962 43.7485 39.9822 43.7573C40.6289 47.752 38.9057 52.0635 35.4604 54.3508C33.2944 55.7878 31.3533 56.8831 30.8275 57.217C28.7367 58.5432 30.0245 59.6968 30.8667 60.4512C31.2295 60.7761 31.5096 61.0271 31.4013 61.1858C31.0005 62.5508 29.3592 64.168 28.8455 64.1731C23.7469 63.864 19.0311 54.8538 30.7486 48.616C32.1959 47.439 32.3138 45.6626 31.1404 44.0125C30.2198 42.7192 28.5506 41.5242 26.7705 42.3132C24.3416 43.3894 23.443 45.4165 24.4316 47.927C24.5147 48.1375 24.9407 48.571 25.4032 49.0415C26.1045 49.7551 26.8872 50.5518 26.6905 50.7883C26.0398 51.5745 24.8034 52.6077 23.9968 53.2456C21.5759 52.6917 19.5748 49.7971 19.5049 46.9009C19.4959 46.5427 19.6058 44.7336 19.6708 44.2114C19.9716 41.7732 20.9542 39.7158 22.6394 38.1238C22.5314 38.2336 22.4415 38.3296 22.3695 38.4077C22.2236 38.5627 22.1456 38.6448 22.1456 38.6448C22.1456 38.6448 22.2316 38.5708 22.3915 38.4307C22.5484 38.2866 22.7883 38.0876 23.0992 37.8425C23.7179 37.3535 24.6554 36.7085 25.8909 36.1853C26.3287 36.0005 26.8154 35.8474 27.3222 35.7144C27.5221 35.6995 27.721 35.6833 27.9299 35.6653C28.4177 35.5984 28.9294 35.5212 29.4472 35.3923C29.7391 35.3813 30.0339 35.3762 30.3338 35.3813C31.1624 35.4133 32.018 35.5364 32.8536 35.7764C33.2424 35.8875 33.6372 36.0254 33.997 36.1904C34.035 36.2065 34.072 36.2244 34.109 36.2415C34.4768 36.4324 34.8456 36.6604 35.1965 36.9016C35.9301 37.3997 36.6248 37.9597 37.2385 38.5808C37.8542 39.1987 38.385 39.8789 38.8158 40.5869C39.2416 41.2961 39.5724 42.0313 39.7953 42.7583C39.8952 43.0864 39.9692 43.4124 40.0272 43.7324L40.0272 43.7324Z" fill="#CC0000" transform="translate(0 0)" />
    <g transform="translate(73.225 15.599)">
      <path d="M116.877 13.759C116.731 11.8473 116.701 9.96291 116.41 8.11757C116.17 6.5867 114.759 5.489 113.172 5.35727C112.352 5.28875 111.503 5.28104 110.694 5.41065C108.502 5.7631 107.886 6.54447 107.891 8.75287C107.898 11.6221 107.055 12.3501 103.775 12.3076C101.638 12.2791 100.257 10.6723 100.388 8.30588C100.53 5.73919 101.851 3.7916 104.002 2.59378C109.433 -0.431855 115.145 -0.867161 120.879 1.58745C124.256 3.0344 126.029 5.90784 126.161 9.55709C126.339 14.5314 126.238 19.5144 126.362 24.4922C126.438 27.5234 126.943 27.828 129.915 27.1337C130.222 27.062 130.533 27.0055 130.834 26.9433C131.372 28.5842 129.338 31.1182 126.677 32.2029C123.094 33.6652 119.251 32.278 117.65 29.0641C115.909 30.0409 114.224 31.1583 112.401 31.9667C109.748 33.1452 106.946 33.3029 104.177 32.3216C101.181 31.2595 99.3487 29.0314 98.8507 25.9686C98.3375 22.8091 99.0617 19.9455 101.818 17.8476C104.566 15.7566 107.759 14.9916 111.057 14.4913C112.873 14.2148 114.704 14.0289 116.877 13.759L116.877 13.759ZM59.164 26.8119C58.4986 26.9285 57.8342 27.0188 57.1807 27.1635C55.9193 27.4453 55.2082 26.9141 55.0408 25.6836C54.9168 24.7729 54.8537 23.8481 54.8461 22.9278C54.833 21.4076 54.8351 19.8871 54.8371 18.3642C54.8409 15.5948 54.8447 12.8265 54.757 10.0609C54.6232 5.84703 52.6366 2.79749 48.5851 1.26661C43.4017 -0.691871 38.3183 -0.252314 33.4763 2.23815C32.078 2.95738 30.8177 4.25639 29.9337 5.58382C28.8376 7.22784 28.7898 9.23626 29.9707 10.9411C31.1042 12.5766 32.7946 12.2882 34.4263 12.0098C34.5475 11.9891 34.6684 11.9684 34.7887 11.9488C34.9681 11.9193 35.1356 11.8051 35.315 11.7854C36.5937 11.6441 36.9058 10.9228 36.8743 9.69308C36.846 8.64 36.8819 7.32904 37.4615 6.5705C38.6858 4.97004 40.6409 5.07017 42.4383 5.40428C44.0693 5.70679 45.0012 6.96889 45.2556 8.48224C45.5416 10.1881 45.4774 11.953 45.5677 13.7221C43.2397 13.9983 41.1748 14.1606 39.1403 14.5032C35.9359 15.0429 32.8435 15.896 30.373 18.2221C27.1925 21.2164 27.0859 27.1351 30.174 30.2316C32.6162 32.6817 35.5934 33.1888 38.8511 32.6307C41.6065 32.1596 43.9312 30.8016 45.9396 28.8965C48.9124 32.6371 51.583 33.4966 55.2039 31.9615C57.8146 30.855 59.4195 28.8445 59.164 26.8119L59.164 26.8119ZM3.98732 23.5376C3.06524 21.8556 1.88873 21.4442 0.309879 21.6392C0.309883 22.3013 0.316662 22.9538 0.323366 23.5995C0.338652 25.0714 0.35356 26.5072 0.287056 27.9388C0.209854 29.6032 1.02537 30.5835 2.44329 31.0831C4.00038 31.6313 5.59771 32.1067 7.21352 32.4429C11.7565 33.3906 16.182 33.1948 20.3597 30.8783C25.7029 27.9159 27.4656 19.3269 21.1545 15.2493C19.9291 14.457 18.5351 13.9141 17.1878 13.3288C14.9511 12.3572 12.6731 11.4824 10.4441 10.4946C9.17076 9.93104 8.33132 8.98872 8.59772 7.45147C8.86304 5.92165 10.0298 5.31902 11.3498 5.12089C14.4814 4.65079 17.215 5.42021 19.1853 8.08145C19.6224 8.67107 19.8421 9.48591 20.3858 9.91139C20.9164 10.327 21.7265 10.4662 22.43 10.5207C22.5931 10.5337 22.9802 9.71113 22.9911 9.26733C23.0369 7.24431 23.0232 5.22049 23.0095 3.19667L23.003 2.21159C22.9932 0.585099 22.8127 0.5272 21.3622 1.11708C20.7457 1.36621 19.8921 1.47829 19.2951 1.25413C14.9022 -0.389892 10.5147 -0.347397 6.19248 1.32159C3.03153 2.54225 0.669786 4.64123 0.122847 8.23364C-0.394731 11.6369 0.72633 14.4822 3.42624 16.5265C4.90722 17.6484 6.67418 18.4109 8.35849 19.2401C10.543 20.3149 12.8047 21.2344 14.9707 22.344C16.1092 22.9273 16.4887 24.0468 16.2157 25.3078C15.9602 26.4905 15.2393 27.2283 14.0356 27.5425C10.2309 28.5371 5.85867 26.9497 3.98732 23.5376L3.98732 23.5376ZM76.0901 32.0207L60.5833 32.0207C60.3419 31.0133 60.8573 30.2592 61.675 29.7979C63.4528 28.7948 64.0378 27.3359 64.0019 25.3306C63.9095 20.1909 63.9335 15.0487 63.9575 9.90448L63.9617 9.00492C63.9704 7.06291 63.3528 5.58754 61.4249 4.86513C60.7464 4.61042 60.0244 4.21894 60.418 3.38763C60.6257 2.94808 61.2857 2.53906 61.7968 2.4562C65.2067 1.90456 68.633 1.45093 72.0516 0.951617C72.8356 0.837412 73.1564 1.14098 73.1379 1.9274C73.1185 2.74198 73.1221 3.55761 73.1264 4.48719C73.1283 4.91001 73.1303 5.35621 73.1303 5.83666C73.8893 4.95968 74.3981 4.33846 74.9407 3.7499C78.4692 -0.0831323 84.9422 -0.946043 89.2579 1.94068C91.798 3.63995 93.0702 6.24594 93.3083 9.18898C93.5932 12.7195 93.5378 16.2774 93.6052 19.8241C93.6465 21.9916 93.6367 24.1599 93.6628 26.3271C93.6802 27.8875 94.3642 28.9918 95.7451 29.8077C96.2518 30.1081 96.4367 30.9535 96.7683 31.5508C96.2398 31.7096 95.7147 31.9991 95.1829 32.009C90.9901 32.0839 86.7962 32.1197 82.6022 32.1253C82.1716 32.1253 81.3703 31.8369 81.3746 31.7041C81.3953 31.1081 81.4594 30.2157 81.8433 29.9809C83.7265 28.8296 83.8951 27.0867 83.8777 25.1708C83.8567 22.7419 83.8562 20.3131 83.8557 17.8842C83.8553 16.1624 83.8549 14.4403 83.8473 12.7184C83.844 12.1222 83.7624 11.5227 83.6711 10.9318C83.1568 7.62012 80.197 5.95963 77.0817 7.25334C76.45 7.51654 75.8584 7.89209 75.2756 8.25967C73.9806 9.07796 73.3706 10.1419 73.4119 11.8035C73.5271 16.459 73.4978 21.1213 73.3912 25.7768C73.3521 27.4979 73.9632 28.7568 75.3191 29.6401C76.2314 30.2343 76.3369 30.9556 76.0901 32.0207L76.0901 32.0207ZM116.693 17.6834C114.369 18.4329 112.218 18.928 110.245 19.8214C108.427 20.6451 107.778 22.8633 108.447 24.6826C109.027 26.2623 110.597 27.1327 112.649 26.6411C113.904 26.3407 115.05 25.5606 116.222 24.9524C116.434 24.8425 116.669 24.5259 116.672 24.3007C116.699 22.7209 116.697 21.1406 116.695 19.3575C116.694 18.8199 116.693 18.2637 116.693 17.6834L116.693 17.6834ZM45.3328 24.0789C45.3306 24.2792 45.211 24.5912 45.0599 24.6598C43.6213 25.316 42.2132 26.2353 40.7006 26.4759C38.9968 26.7479 37.954 25.7532 37.519 24.242C36.9928 22.4121 37.4592 20.7909 38.913 19.8345C40.8018 18.5931 42.9189 18.0678 45.3447 18.0112L45.3455 19.4053C45.3468 21.014 45.348 22.5464 45.3328 24.0789L45.3328 24.0789Z" fill="#FFFFFF" transform="scale(1 1)" />
    </g>
  </g>
</svg>