<?xml version="1.0" standalone="no"?><!DOCTYPE svg PUBLIC "-//W3C//DTD SVG 1.1//EN" "http://www.w3.org/Graphics/SVG/1.1/DTD/svg11.dtd"><svg t="1775990950900" class="icon" viewBox="0 0 1207 1024" version="1.1" xmlns="http://www.w3.org/2000/svg" p-id="86272" xmlns:xlink="http://www.w3.org/1999/xlink" width="301.75" height="256"><path d="M909.091767 776.947079a60.939179 60.939179 0 1 0-60.939179-60.939179 60.390177 60.390177 0 0 0 60.939179 60.939179z m0 93.769475a154.873354 154.873354 0 1 1 154.873354-154.873354 156.245858 156.245858 0 0 1-154.873354 154.873354z" fill="#ffffff" p-id="86273"></path><path d="M796.271936 793.307327a415.97852 415.97852 0 0 1-96.239982 107.988617 177.766721 177.766721 0 0 1-246.446823-46.884738l-333.243978-483.615518a179.907828 179.907828 0 0 1 47.049438-246.446823 186.660548 186.660548 0 0 1 122.043058-30.46959 173.264908 173.264908 0 0 1 30.469589 7.137021A46.720037 46.720037 0 0 0 348.067021 11.913335a304.640994 304.640994 0 0 0-44.578931-9.442828A269.504891 269.504891 0 0 0 47.59844 422.511639l333.243977 483.450819a269.010789 269.010789 0 0 0 375.626902 70.382006 465.059264 465.059264 0 0 0 126.709572-145.595227 47.378839 47.378839 0 1 0-86.961855-37.44191z m136.152399-194.785771l152.567548-227.725868a174.966813 174.966813 0 0 0-46.884738-246.446823 180.56663 180.56663 0 0 0-150.20684-23.497269 46.720037 46.720037 0 1 1-28.163783-89.102962 269.669591 269.669591 0 0 1 300.468582 410.763005l-152.457748 227.725869a46.061235 46.061235 0 0 1-65.880193 11.748634 45.073032 45.073032 0 0 1-9.442828-63.464586z" fill="#ffffff" p-id="86274"></path><path d="M603.737071 193.632868a46.555337 46.555337 0 0 1 46.335736 42.053523v73.730917h69.174203a46.555337 46.555337 0 0 1 4.446913 92.891072h-73.621116v67.033097a46.555337 46.555337 0 0 1-92.891072 4.501813V402.30838H480.815611a46.555337 46.555337 0 0 1-4.446914-92.891072h80.813038V240.298005a46.555337 46.555337 0 0 1 46.555336-46.555337z" fill="#ffffff" p-id="86275"></path></svg>