<?xml version="1.0" standalone="no"?><!DOCTYPE svg PUBLIC "-//W3C//DTD SVG 1.1//EN" "http://www.w3.org/Graphics/SVG/1.1/DTD/svg11.dtd"><svg t="1775990775470" class="icon" viewBox="0 0 1038 1024" version="1.1" xmlns="http://www.w3.org/2000/svg" p-id="82161" xmlns:xlink="http://www.w3.org/1999/xlink" width="259.5" height="256"><path d="M277.942857 394.971429c-7.314286 0-14.628571 0-18.285714 3.657142-7.314286 3.657143-10.971429 7.314286-14.628572 10.971429L36.571429 618.057143v3.657143l186.514285-186.514286c7.314286-7.314286 18.285714-14.628571 29.257143-18.285714 10.971429-3.657143 21.942857-7.314286 32.914286-7.314286 10.971429 0 21.942857 3.657143 32.914286 7.314286 3.657143 3.657143 10.971429 3.657143 14.628571 7.314285l-14.628571-14.628571c-10.971429-3.657143-14.628571-7.314286-21.942858-10.971429s-14.628571-3.657143-18.285714-3.657142zM277.942857 566.857143v-3.657143l-113.371428 113.371429h3.657142z" p-id="82162" fill="#ffffff"></path><path d="M241.371429 365.714286c10.971429-3.657143 21.942857-7.314286 32.914285-7.314286 10.971429 0 21.942857 3.657143 32.914286 7.314286 10.971429 3.657143 21.942857 10.971429 29.257143 18.285714l117.028571 117.028571h58.514286c14.628571 0 25.6 3.657143 40.228571 7.314286 10.971429 3.657143 25.6 14.628571 32.914286 21.942857 10.971429 10.971429 18.285714 21.942857 21.942857 32.914286 3.657143 10.971429 7.314286 25.6 7.314286 40.228571 0 14.628571-3.657143 25.6-7.314286 40.228572-3.657143 10.971429-14.628571 25.6-21.942857 32.914286-10.971429 10.971429-21.942857 18.285714-32.914286 21.942857-10.971429 3.657143-25.6 7.314286-40.228571 7.314285H376.685714l-95.085714-95.085714-95.085714 95.085714h-109.714286L277.942857 512l128 128h109.714286c7.314286 0 18.285714-3.657143 21.942857-10.971429 7.314286-7.314286 10.971429-14.628571 10.971429-25.6 0-7.314286-3.657143-18.285714-10.971429-25.6-7.314286-7.314286-14.628571-10.971429-21.942857-10.971428h-87.771429l-113.371428-113.371429c-3.657143-3.657143-10.971429-7.314286-14.628572-10.971428-7.314286-3.657143-10.971429-3.657143-18.285714-3.657143s-14.628571 0-18.285714 3.657143c-7.314286 3.657143-10.971429 7.314286-14.628572 10.971428l-248.685714 248.685715v-106.057143l219.428571-219.428572c3.657143 0 14.628571-7.314286 21.942858-10.971428z" p-id="82163" fill="#ffffff"></path><path d="M131.657143 917.942857c-10.971429 0-21.942857-3.657143-32.914286-7.314286-10.971429-3.657143-18.285714-10.971429-25.6-18.285714-7.314286-7.314286-14.628571-18.285714-18.285714-25.6 0-10.971429-3.657143-21.942857-3.657143-32.914286s3.657143-21.942857 7.314286-32.914285c3.657143-10.971429 10.971429-18.285714 18.285714-25.6 7.314286-7.314286 18.285714-14.628571 25.6-18.285715 10.971429-3.657143 21.942857-7.314286 32.914286-7.314285h405.942857c21.942857 0 43.885714 7.314286 58.514286 25.6 14.628571 14.628571 25.6 36.571429 25.6 58.514285 0 21.942857-7.314286 43.885714-25.6 58.514286-14.628571 14.628571-36.571429 25.6-58.514286 25.6H131.657143z m-47.542857-84.114286c0 14.628571 3.657143 25.6 14.628571 36.571429 10.971429 10.971429 21.942857 14.628571 36.571429 14.628571h405.942857c14.628571 0 25.6-3.657143 36.571428-14.628571s14.628571-21.942857 14.628572-36.571429-3.657143-25.6-14.628572-36.571428c-10.971429-10.971429-21.942857-14.628571-36.571428-14.628572H135.314286c-14.628571 0-25.6 3.657143-36.571429 14.628572-7.314286 10.971429-14.628571 25.6-14.628571 36.571428z" p-id="82164" fill="#ffffff"></path><path d="M95.085714 742.4c10.971429-3.657143 25.6-7.314286 36.571429-7.314286h405.942857a99.913143 99.913143 0 0 1 98.742857 98.742857 99.913143 99.913143 0 0 1-98.742857 98.742858H131.657143c-14.628571 0-25.6-3.657143-36.571429-7.314286-10.971429-3.657143-21.942857-10.971429-32.914285-21.942857-10.971429-10.971429-18.285714-21.942857-21.942858-32.914286-3.657143-10.971429-7.314286-25.6-7.314285-40.228571 0-14.628571 3.657143-25.6 7.314285-40.228572 3.657143-10.971429 10.971429-21.942857 21.942858-32.914286 10.971429 0 21.942857-10.971429 32.914285-14.628571zM135.314286 804.571429c-7.314286 0-14.628571 3.657143-21.942857 7.314285-7.314286 7.314286-7.314286 14.628571-7.314286 21.942857 0 7.314286 3.657143 14.628571 7.314286 21.942858 7.314286 7.314286 14.628571 7.314286 21.942857 7.314285h405.942857c7.314286 0 14.628571-3.657143 21.942857-7.314285s7.314286-14.628571 7.314286-21.942858c0-7.314286-3.657143-14.628571-7.314286-21.942857-7.314286-7.314286-14.628571-7.314286-21.942857-7.314285H135.314286z" p-id="82165" fill="#ffffff"></path><path d="M866.742857 548.571429v-36.571429l54.857143-51.2-54.857143-51.2V365.714286l98.742857 91.428571-98.742857 91.428572zM709.485714 548.571429v-36.571429l54.857143-51.2-54.857143-51.2V365.714286l98.742857 91.428571L709.485714 548.571429z" p-id="82166" fill="#ffffff"></path><path d="M698.514286 336.457143l128 120.685714-128 120.685714v-73.142857l47.542857-43.885714-47.542857-47.542857zM852.114286 336.457143l131.657143 120.685714-131.657143 120.685714v-73.142857l51.2-43.885714-51.2-47.542857z" p-id="82167" fill="#ffffff"></path><path d="M658.285714 204.8c0 91.428571-73.142857 168.228571-168.228571 168.228571s-168.228571-73.142857-168.228572-168.228571S394.971429 36.571429 490.057143 36.571429s168.228571 76.8 168.228571 168.228571z m-164.571428-87.771429c-47.542857 0-87.771429 40.228571-87.771429 87.771429S446.171429 292.571429 493.714286 292.571429s87.771429-40.228571 87.771428-87.771429-40.228571-87.771429-87.771428-87.771429zM1009.371429 797.257143c0 91.428571-73.142857 168.228571-168.228572 168.228571s-168.228571-73.142857-168.228571-168.228571 73.142857-168.228571 168.228571-168.228572 168.228571 76.8 168.228572 168.228572z m-168.228572-84.114286c-47.542857 0-87.771429 40.228571-87.771428 87.771429s40.228571 87.771429 87.771428 87.771428 87.771429-40.228571 87.771429-87.771428-36.571429-87.771429-87.771429-87.771429z" p-id="82168" fill="#ffffff"></path></svg>