<?xml version="1.0" standalone="no"?><!DOCTYPE svg PUBLIC "-//W3C//DTD SVG 1.1//EN" "http://www.w3.org/Graphics/SVG/1.1/DTD/svg11.dtd"><svg t="1775991269240" class="icon" viewBox="0 0 1024 1024" version="1.1" xmlns="http://www.w3.org/2000/svg" p-id="104650" xmlns:xlink="http://www.w3.org/1999/xlink" width="256" height="256"><path d="M922.666667 648.213333a101.546667 101.546667 0 0 0-51.626667 13.12 66.026667 66.026667 0 0 1-64 0 109.546667 109.546667 0 0 0-103.146667 0 65.813333 65.813333 0 0 1-64 0c-3.733333-1.813333-7.68-3.84-12.266666-5.653333l81.813333-224 150.506667 55.04-8.533334 23.253333 40.106667 14.613334 33.173333-90.56a224.64 224.64 0 0 0-114.986666-279.253334l8.106666-22.08-40.106666-14.72-8 22.08a224 224 0 0 0-266.666667 140.053334L469.333333 370.666667l40.106667 14.613333 8.533333-23.253333 150.4 55.04-84.48 231.253333a101.632 101.632 0 0 0-48.213333 13.013333c-9.642667 5.824-20.736 8.746667-32 8.426667-10.752 0.256-21.333333-2.666667-30.4-8.426667a102.72 102.72 0 0 0-99.946667 0 59.733333 59.733333 0 0 1-60.48 0 94.826667 94.826667 0 0 0-50.133333-13.12 96 96 0 0 0-50.773333 13.12 54.613333 54.613333 0 0 1-30.186667 8.213334c-10.666667 0.298667-21.162667-2.56-30.186667-8.213334a96 96 0 0 0-50.24-13.12 21.333333 21.333333 0 0 0-21.333333 21.333334V884.693333a21.333333 21.333333 0 0 0 21.333333 21.333334h821.333334a21.333333 21.333333 0 0 0 21.333333-21.333334V669.546667a21.333333 21.333333 0 0 0-21.333333-21.333334z m-154.133334-463.786666c2.346667 0.64 4.586667 1.28 6.933334 2.133333 2.346667 0.853333 4.373333 1.813333 6.613333 2.773333 10.666667 29.12 37.866667 128-39.253333 209.493334l-79.466667-29.013334c-6.186667-112.213333 78.293333-169.92 105.173333-185.386666z m115.093334 234.666666l-10.026667 27.2-87.893333-32a238.293333 238.293333 0 0 0 48-192.96 181.866667 181.866667 0 0 1 49.92 198.08v-0.32z m-341.333334-124.693333a181.333333 181.333333 0 0 1 166.186667-118.826667 238.293333 238.293333 0 0 0-88 178.56l-87.893333-32 9.706666-27.733333z m359.04 568.96H122.666667v-168.746667c2.986667 1.28 5.76 2.773333 8.853333 4.373334a95.36 95.36 0 0 0 49.813333 13.226666 95.36 95.36 0 0 0 50.24-13.226666 54.08 54.08 0 0 1 30.186667-8.106667 54.613333 54.613333 0 0 1 30.186667 8.106667 94.826667 94.826667 0 0 0 50.24 13.226666 94.592 94.592 0 0 0 50.133333-13.226666 60.48 60.48 0 0 1 60.48 0 95.36 95.36 0 0 0 50.24 13.226666 101.333333 101.333333 0 0 0 51.626667-13.013333 66.56 66.56 0 0 1 64 0 108.693333 108.693333 0 0 0 103.146666 0 66.773333 66.773333 0 0 1 64 0c32.213333 17.344 71.04 17.344 103.253334 0 3.413333-1.92 6.997333-3.605333 10.666666-5.013333l1.6 169.173333zM352 286.186667a81.386667 81.386667 0 1 0-162.773333 0 81.386667 81.386667 0 0 0 162.773333 0z m-81.386667 38.72a38.72 38.72 0 1 1 38.72-38.72c0 21.546667-17.6 38.954667-39.146666 38.72h0.426666z m-21.76-202.666667h42.666667v64h-42.666667v-64z" p-id="104651" fill="#ffffff"></path><path d="M248.853333 388.906667h42.666667v64h-42.666667v-64z m122.666667-122.666667h64v42.666667h-64v-42.666667z m-266.666667 0h64v42.666667h-64v-42.666667z m221.909334 108.096l30.165333-30.165333 45.248 45.248-30.165333 30.165333-45.248-45.226667z m-188.586667-188.586667l30.165333-30.165333 45.248 45.248-30.165333 30.165333-45.248-45.226666z m0 203.690667l45.248-45.269333 30.165333 30.165333-45.248 45.248-30.165333-30.144z m188.586667-188.586667l45.248-45.248 30.165333 30.165334-45.248 45.248-30.165333-30.165334z m220.437333 565.973334a53.333333 53.333333 0 0 1-56.32 0 96 96 0 0 0-97.706667 0 53.333333 53.333333 0 0 1-56.213333 0 89.6 89.6 0 0 0-48.96-13.333334h-21.333333v42.666667h21.333333a48.426667 48.426667 0 0 1 28.16 8 96 96 0 0 0 97.6 0 53.333333 53.333333 0 0 1 56.32 0 96 96 0 0 0 97.706667 0 48.213333 48.213333 0 0 1 28.16-8h21.333333v-42.666667h-21.333333a89.6 89.6 0 0 0-48.746667 13.333334z" p-id="104652" fill="#ffffff"></path></svg>