<?xml version="1.0" standalone="no"?><!DOCTYPE svg PUBLIC "-//W3C//DTD SVG 1.1//EN" "http://www.w3.org/Graphics/SVG/1.1/DTD/svg11.dtd"><svg t="1775991126350" class="icon" viewBox="0 0 1024 1024" version="1.1" xmlns="http://www.w3.org/2000/svg" p-id="94875" xmlns:xlink="http://www.w3.org/1999/xlink" width="256" height="256"><path d="M843.64469 886.964224c-8.517984-8.517984-20.301331-13.782884-33.308551-13.782883a46.976824 46.976824 0 0 0-33.320829 13.782883c-8.517984 8.519007-13.79107 20.296215-13.79107 33.331063 0 12.992893 5.272063 24.771124 13.79107 33.289108 8.517984 8.52003 20.304401 13.821769 33.320829 13.821769 13.007219 0 24.78545-5.301739 33.304457-13.821769 8.530263-8.517984 13.805396-20.296215 13.805397-33.289108 0-13.034848-5.275133-24.812056-13.805397-33.331063h0.004094z m-152.431387-315.365967l-25.406596 124.918831h120.973994v-76.593292c0-27.520742-8.437143-50.130647-22.392965-68.974793-10.558452-14.254627-24.367942-26.699029-40.20255-37.610521-3.700268 6.555286-7.360627 13.189367-11.022009 19.786609-6.506168 11.778231-13.009266 23.554415-21.949874 38.473166zM553.217668 1014.513971l92.779918-456.183875a23.71712 23.71712 0 0 1 3.565191-8.481145c7.682968-12.759579 15.032338-26.06765 22.377616-39.339905 7.015773-12.715577 14.036663-25.436271 24.112115-42.083383 6.590079-10.87363 20.633905-14.48487 31.629308-8.242715h0.026606c29.333014 16.684974 55.388384 37.099892 74.407515 62.814502 19.805029 26.732798 31.775641 58.572906 31.775641 96.927369v209.133693c16.542735 4.241596 31.342783 12.87419 43.058592 24.614558 17.056434 17.036991 27.607723 40.592429 27.607723 66.623241 0 26.028764-10.554359 49.584203-27.607723 66.622216-17.041084 17.035968-40.597546 27.595443-66.614031 27.595444-26.017508 0-49.571923-10.558452-66.628356-27.595444-17.053364-17.038014-27.593396-40.594476-27.593397-66.622216 0-26.030811 10.540033-49.586249 27.593397-66.623241 11.723996-11.740369 26.513811-20.372962 43.072918-24.614558v-85.429524H656.229604L601.137978 1014.513971h-47.92031zM531.539993 9.487053c-52.028876 0-94.22073 42.321813-94.22073 94.577863 0.004093 52.25298 42.18776 94.612655 94.22073 94.612655 52.045249 0 94.22994-42.360699 94.229939-94.612655 0.00307-52.25605-42.188784-94.577863-94.229939-94.577863z m114.560946 403.583995c20.490642 12.130247 27.285382 38.668617 15.181741 59.241124-12.118991 20.611392-38.549914 27.399992-59.045673 15.269744l-131.828181-78.241835c-7.318671-4.359276-12.893632-10.519567-16.481337-17.589575l-46.676995-77.102898c-20.150905 31.015326-36.027469 63.285222-48.425823 96.421857-18.088948 48.287676-28.766103 98.342599-34.574377 148.749538l64.366854 180.905848c9.34686 26.304033 12.955031 52.489363 11.191878 80.323236l-9.550498 150.164768c-0.030699 23.907455-19.357845 43.299069-43.176272 43.299069h-18.371379c-23.804101-0.037862-41.84393-22.216956-40.356046-46.048687l11.21132-176.231395-56.499692-158.803501-8.362442 5.926977 19.621857 108.352561c4.747108 26.190446 4.451373 51.552017-1.076516 77.61762l-32.270919 152.247192c-3.101635 20.925547-21.04425 36.939233-42.709646 36.939233H162.541632c-2.944046-0.037862-5.922884-0.390902-8.920143-1.019211-23.291426-4.945629-38.167198-27.910621-33.232825-51.30847l37.552192-177.179998-28.535859-157.540744c-8.383931-46.329072-10.273974-61.012464-2.525515-108.23795 14.722277-89.865547 41.516473-167.441212 77.501987-230.921885 36.766295-64.852924 83.125043-115.26191 136.15471-149.417756 8.037031-5.183036 14.887029-9.462494 24.898014-10.681249 16.264396-1.961674 32.934021 5.536075 41.97389 20.534644l115.944453 191.463277 122.748403 72.868466z" fill="#ffffff" p-id="94876"></path></svg>