<?xml version="1.0" standalone="no"?><!DOCTYPE svg PUBLIC "-//W3C//DTD SVG 1.1//EN" "http://www.w3.org/Graphics/SVG/1.1/DTD/svg11.dtd"><svg t="1775991021056" class="icon" viewBox="0 0 1024 1024" version="1.1" xmlns="http://www.w3.org/2000/svg" p-id="90339" xmlns:xlink="http://www.w3.org/1999/xlink" width="256" height="256"><path d="M676.9 188.6c26 0 45.4 8.3 59.4 25.3s18.9 38.5 18.9 53.1c0 15.6-4 31.6-12.1 48.7-8.9 18.7-22.9 38.7-41.5 59.2-33 36.5-79.8 74.7-142.4 116.1-61.5-40.4-109.3-79.4-142.3-116.4-35.4-39.5-53.3-75.7-53.3-107.6 0-19.6 6.8-39.6 18.1-53.6 13.5-16.6 33.2-24.7 60.3-24.7 15.6 0 30.2 6.6 44.5 20.1 12.4 11.8 19.7 24.1 20.7 26 9.8 20.1 29.9 32.2 52.3 32.2h0.2c22.4 0 42.6-13 52.5-33.1 0.1-0.1 6.5-11.9 18.1-23.5 6.8-6.8 14-12.1 21.3-15.8 8.1-4.1 16.4-6 25.3-6m0-58.7c-78.9 0-117.5 78.3-117.5 78.3s-39.7-78.3-117.5-78.3c-99.7 0-137.1 78.3-137.1 137.1 0 97.1 97.3 196.5 254.6 293.8C715.5 462.8 814 366.1 814 266.9c0-58.1-40.4-137-137.1-137zM514 915.7c-30.5 0-82.3-14.4-153.7-42.8-56.9-22.6-118.2-51-159.8-74.2-28.3-15.7-45.8-45.8-45.8-78.4V640c0-40.2 32.7-72.8 72.8-72.8h119.8c7 0 12.6 1.8 27.7 6.7 38.7 12.5 129.4 41.8 204.8 27.1 67.3-13.2 102.7 14.4 113.4 44.6 3.1 8.8 4.2 17.8 3.6 26.7 28.9-14.9 63.1-33.2 103.7-55.9l2.5-1.4c0.7-0.4 1.4-0.7 2.1-1.1 36.8-17.2 78.2-3.3 96.4 32.3 16.9 33 10 82.4-44.9 113-14.9 8.3-32.5 18.5-51.1 29.3C685.2 858 580.3 915.7 514 915.7zM227.5 632.5c-4.1 0-7.5 3.4-7.5 7.5v80.2c0 8.9 4.7 17.1 12.3 21.3C317.5 789 469.5 850.2 514 850.2c15.4 0 47.6-6.7 113.2-38.7 48.7-23.7 100.1-53.5 145.4-79.8 18.9-10.9 36.8-21.3 52.1-29.8 14.8-8.2 22.2-18.8 18.5-26.2-1.4-2.7-4.2-5.4-9.7-3.2l-1.2 0.6C706 744 618.5 785.5 572.3 796.6c-0.6 0.1-1.1 0.3-1.7 0.4-15.5 2.9-28.8 4-39.4 3.5-30.4-1.6-39.8-18.4-42.7-28.3-2.3-7.8-4.9-27.7 18.9-44.7 7.7-5.5 18-10.8 31.8-16.3 6.6-2.6 13.3-5.2 20.4-7.9 21.5-8.2 43.7-16.8 65.2-28.1 5.3-2.8 6.8-6.5 6.8-7.6-1.5-1.9-12.2-7.6-39.3-2.3-18.9 3.7-38.3 5.3-57.4 5.3-74 0-145.4-23.1-180-34.3-4-1.3-8.4-2.7-11.1-3.5H227.5z" fill="#ffffff" p-id="90340"></path></svg>